<?xml version="1.0" encoding="UTF-8"?>
<svg id="rocket" xmlns="http://www.w3.org/2000/svg" version="1.1" viewBox="0 0 800 800">
  <!-- Generator: Adobe Illustrator 29.5.0, SVG Export Plug-In . SVG Version: 2.1.0 Build 137)  -->
  <path id="path7143" d="M744.2,353.9c-63.9-63.9-193.6-105.9-326.6-88.1l-47.8-47.8c-34.5-34.5-80-28.5-120.9-14.9l-54.7,18.2,43,43,43.1,43.1v178.9l-43.1,43.1-43,43,54.7,18.2c40.9,13.6,86.4,19.6,120.9-14.9l47.8-47.8c133,17.8,262.7-24.1,326.6-88.1l43.1-43.1-43.1-43.1ZM578.6,367.2c16.5,16.5,16.5,43.2,0,59.6h0c-16.5,16.5-43.2,16.5-59.6,0h0c-16.5-16.5-16.5-43.2,0-59.6h0c16.5-16.5,43.2-16.5,59.6,0h0ZM205.8,352.3h-29.8c-43.1,0-104.4,44.7-104.4,44.7,0,0,56.5,44.7,104.4,44.7h29.8v-89.5Z"/>
</svg>